<svg xmlns="http://www.w3.org/2000/svg" id="iqoo" width="500.001" height="118.256" class="vep-head-logo-small" version="1.1" viewBox="0 0 341.838 82.265">
  <g id="pc-logo黑" fill="#FFF" style="fill:#000" transform="translate(-2.995)scale(5.26184)">
    <path id="IQOO-LOGO-黄" fill="#FFF" d="M 0,2.531906 V 4.3671121e-4 H 2.6243988 V 2.531906 Z M 0,15.404697 V 5.0619196 H 2.6243988 V 15.404697 Z M 15.801175,2.531906 c -2.959429,0 -5.357456,2.3145694 -5.357456,5.1677493 0,2.8546357 2.398027,5.1692047 5.357456,5.1692047 v 2.53147 c -4.408205,0 -7.981855,-3.448563 -7.981855,-7.7006747 0,-4.2521115 3.57365,-7.69921858879 7.981855,-7.69921858879 4.409714,0 7.981854,3.44710708879 7.981854,7.69921858879 H 21.16014 c 0,-2.8531799 -2.399537,-5.1677493 -5.358965,-5.1677493 z m 15.801929,5.1673126 c 0,2.8546354 2.399537,5.1692054 5.357456,5.1692054 2.959428,0 5.358965,-2.31457 5.358965,-5.1692054 0,-2.8531799 -2.399537,-5.1677493 -5.358965,-5.1677493 -2.957919,0 -5.357456,2.3145694 -5.357456,5.1677493 z m -2.624399,0 C 28.978705,3.4471071 32.552355,0 36.96056,0 c 4.408205,0 7.983364,3.4471071 7.983364,7.6992186 0,4.2535674 -3.575159,7.7006744 -7.983364,7.7006744 -4.408205,0 -7.981855,-3.447107 -7.981855,-7.7006744 z m 23.784086,0 c 0,2.8546354 2.398027,5.1692054 5.357456,5.1692054 2.959428,0 5.357456,-2.31457 5.357456,-5.1692054 0,-2.8531799 -2.398028,-5.1677493 -5.357456,-5.1677493 -2.959429,0 -5.357456,2.3145694 -5.357456,5.1677493 z M 58.120247,0 c 3.9947,0 7.305759,2.8313443 7.891306,6.5273768 0.06037,0.3828502 0.09206,0.7744346 0.09206,1.1732975 0,4.2521117 -3.575159,7.6992187 -7.983364,7.6992187 -4.408205,0 -7.983364,-3.447107 -7.983364,-7.7006744 C 50.136883,3.4471071 53.712042,0 58.120247,0 Z m -42.491114,9.3208729 1.860772,-1.7861489 6.51195,6.314844 -1.860773,1.784693 z" style="fill:#000"></path>
  </g>
</svg>
